<?xml version="1.0" encoding="utf-8"?>
<!-- Generator: Adobe Illustrator 22.0.1, SVG Export Plug-In . SVG Version: 6.00 Build 0)  -->
<svg version="1.1" id="Calque_1" xmlns="http://www.w3.org/2000/svg" xmlns:xlink="http://www.w3.org/1999/xlink" x="0px" y="0px"
	 viewBox="0 0 48 60" style="enable-background:new 0 0 48 60;" xml:space="preserve">
<g>
	<path d="M40.1,4.8c-0.5,0-1,0-1.5,0.1c-1.1-0.9-2.4-1.3-3.8-1.2L23.9,4.6c-0.2,0-0.5,0.1-0.6,0.3l-23,23c-0.4,0.4-0.4,1,0,1.4
		L15,44c0.2,0.2,0.5,0.3,0.7,0.3s0.5-0.1,0.7-0.3l23-23c0.2-0.2,0.3-0.4,0.3-0.6l0.8-10.9c0.1-0.9-0.1-1.8-0.5-2.7h0.1
		c3.2,0,5.9,2.1,5.9,4.8c0,0.6,0.4,1,1,1s1-0.4,1-1C48,7.9,44.5,4.8,40.1,4.8z M38.5,9.3l-0.8,10.5l-22,22L2.4,28.6l22-22l10.5-0.8
		c0.4,0,0.7,0,1,0.1c-1.3,0.7-2.4,1.7-3,3C31.6,8.5,30,8.8,29,9.8c-0.7,0.7-1.1,1.7-1.1,2.7s0.4,2,1.1,2.7s1.7,1.1,2.7,1.1
		c1,0,2-0.4,2.7-1.1c0.7-0.7,1.1-1.7,1.1-2.7s-0.4-1.9-1-2.6c0.6-1.2,1.8-2.2,3.3-2.7C38.3,7.8,38.6,8.5,38.5,9.3z M33.2,12.6
		c0.2,0,0.3,0,0.4-0.1c0,0.5-0.2,1-0.6,1.3c-0.7,0.7-1.9,0.7-2.7,0c-0.4-0.4-0.6-0.8-0.6-1.3s0.2-1,0.6-1.3c0.4-0.4,0.8-0.6,1.3-0.6
		c0.2,0,0.4,0,0.5,0.1c0,0.3-0.1,0.6-0.1,0.9C32.2,12.1,32.7,12.6,33.2,12.6z"/>
</g>
</svg>
