<?xml version="1.0" encoding="utf-8"?>
<!-- Generator: Adobe Illustrator 22.0.1, SVG Export Plug-In . SVG Version: 6.00 Build 0)  -->
<svg version="1.1" id="Calque_1" xmlns="http://www.w3.org/2000/svg" xmlns:xlink="http://www.w3.org/1999/xlink" x="0px" y="0px"
	 viewBox="0 0 100 125" style="enable-background:new 0 0 100 125;" xml:space="preserve">
<g>
	<path d="M16.4,47.2c-0.9-0.3-1.6-0.5-2.3-0.5c-1.5,0-2.2,0.8-2.6,1.4c-1.2,2.2,0.3,6.2,1.2,7.7c0.5,0.8,1.8,1.7,7.1,1.7
		c3.3,0,6.5-0.3,6.6-0.4l1.4-0.1l-0.8-1.2C26.9,55.6,22.8,49.5,16.4,47.2z M19.9,55.8c-5,0-5.6-0.8-5.6-0.9c-0.9-1.5-1.9-4.7-1.2-6
		c0.1-0.2,0.4-0.5,1.1-0.5c0.5,0,1,0.1,1.7,0.4c4.2,1.5,7.5,5,9,6.8C23.5,55.7,21.7,55.8,19.9,55.8z"/>
	<path d="M93.3,31.9c-2.3-0.5-6.2,0-7.1,2c-0.4,0.9-1,1.4-1.5,1.6c-0.2-0.4-0.3-0.8-0.5-1.2c-2.4-5.4-6.8-15.4-14.4-16.4
		c-6-0.8-11.3-0.9-16.1-0.9L50,17l-3.7,0c-4.8,0-10.1,0.1-16.1,0.9c-7.7,1-12.1,11-14.4,16.4c-0.2,0.5-0.4,0.9-0.5,1.2
		c-0.4-0.2-1-0.7-1.5-1.6c-0.9-1.9-4.8-2.5-7.1-2c-2,0.4-3.1,1.5-3.1,3c0,1.7,0.2,3.4,1.6,4.5c1,0.8,2.4,1.2,4.3,1.2
		c0.9,0,1.9-0.1,3-0.2c-0.3,0.4-0.5,0.8-0.8,1.2c-0.7,1-1.5,2.2-2.6,3.8c-3,4.7-3,6-3,18.5c0,3.1,0.6,5.4,1.4,7.2v8.5
		c0,1.9,1.6,3.5,3.6,3.5h6.3c2,0,3.6-1.5,3.6-3.5v-2.7h58v2.7c0,1.9,1.6,3.5,3.6,3.5h6.3c2,0,3.6-1.5,3.6-3.5v-8.5
		c0.8-1.8,1.4-4.1,1.4-7.2c0-12.5,0-13.8-3-18.5c-1-1.6-1.8-2.8-2.6-3.8c-0.3-0.4-0.6-0.8-0.8-1.2c1.1,0.2,2.2,0.2,3,0.2
		c2,0,3.4-0.4,4.3-1.2c1.4-1.1,1.6-2.8,1.6-4.5C96.4,33.4,95.3,32.3,93.3,31.9z M6.2,38.1c-0.8-0.6-0.9-1.7-0.9-3.2
		c0-0.8,0.9-1.2,1.7-1.3c2.2-0.5,4.8,0.3,5.2,1c0.6,1.4,1.6,2.1,2.3,2.5c-0.2,0.5-0.5,0.9-0.7,1.3C9.9,39.1,7.4,39,6.2,38.1z
		 M19.3,79.6c0,1-0.8,1.7-1.9,1.7h-6.3c-1,0-1.9-0.8-1.9-1.7v-5.8c2.7,2.9,6.1,3.1,6.8,3.2c0,0,0.1,0,0.1,0c0,0,0,0,0,0l0,0
		c0,0,0,0,0,0h3.1L19.3,79.6L19.3,79.6z M90.8,79.6c0,1-0.8,1.7-1.9,1.7h-6.3c-1,0-1.9-0.8-1.9-1.7v-2.7h3.2h0c0,0,0,0,0.1,0
		c0.7,0,4.1-0.2,6.8-3.2L90.8,79.6L90.8,79.6z M89.4,46.2c2.7,4.3,2.7,5.3,2.7,17.6c0,2.7-0.5,4.8-1.2,6.3l-0.2,0.3
		c-2.2,4.5-6.5,4.6-7,4.6c0,0,0,0,0,0H79H50H21h-4.9c-0.5,0-4.8-0.1-7-4.6L9,70.2c-0.7-1.6-1.2-3.6-1.2-6.3c0-12.3,0-13.3,2.7-17.6
		c1-1.6,1.8-2.7,2.5-3.7c1.3-1.8,2.4-3.3,3.7-6.3c0.2-0.4,0.4-0.8,0.6-1.3c2.2-5.1,6.4-14.5,13.1-15.4c5.9-0.8,11.1-0.9,15.9-0.9
		l3.7,0l3.7,0c4.8,0,10,0.1,15.9,0.9c6.7,0.9,10.9,10.3,13.1,15.4c0.2,0.5,0.4,0.9,0.6,1.3c1.4,3,2.4,4.5,3.7,6.3
		C87.6,43.5,88.4,44.7,89.4,46.2z M93.8,38.1c-1.1,0.9-3.7,1-7.5,0.3C86,38,85.8,37.5,85.5,37c0.7-0.4,1.7-1.1,2.3-2.5
		c0.3-0.7,2.9-1.5,5.2-1c0.8,0.2,1.7,0.5,1.7,1.3C94.7,36.4,94.5,37.4,93.8,38.1z"/>
	<path d="M50,65.9c-0.8-0.1-10.8-0.7-18.8-1.6l-1-0.1l0.1,1c0.1,1.6,1.3,4.8,5.2,5.2c4.1,0.4,14.5,1.2,14.6,1.2l0.1,0l0.1,0
		c0.1,0,10.5-0.8,14.6-1.2c3.8-0.4,5-3.6,5.2-5.2l0.1-1l-1,0.1C60.8,65.2,50.8,65.9,50,65.9z M64.5,68.7c-3.9,0.4-13.6,1.1-14.5,1.2
		c-0.9-0.1-10.6-0.8-14.5-1.2c-2.1-0.2-3-1.6-3.4-2.5c8.2,0.9,17.7,1.5,17.8,1.5l0.1,0l0.1,0c0.1,0,9.6-0.6,17.8-1.5
		C67.5,67.1,66.6,68.4,64.5,68.7z"/>
	<path d="M64.1,53.5H35.9c-1.6,0-6.9,0.2-6.9,2.6c0,2.2,5.3,4.3,6.9,4.3h28.3c1.5,0,6.9-2.1,6.9-4.3C71,53.7,65.7,53.5,64.1,53.5z
		 M64.1,58.6H35.9c-1.3,0-4.8-1.7-5.1-2.5c0.5-0.5,2.9-0.9,5.1-0.9h28.3c2.2,0,4.6,0.4,5.1,0.9C68.9,56.9,65.4,58.6,64.1,58.6z"/>
	<path d="M83.6,47.2c-6.5,2.3-10.5,8.4-10.7,8.7l-0.8,1.2l1.4,0.1c0.1,0,3.3,0.4,6.6,0.4c5.4,0,6.6-0.9,7.1-1.7
		c1-1.6,2.4-5.6,1.2-7.7c-0.4-0.6-1.1-1.4-2.6-1.4C85.2,46.7,84.5,46.9,83.6,47.2z M87,49c0.7,1.2-0.2,4.5-1.2,6
		c0,0-0.6,0.9-5.6,0.9c-1.8,0-3.6-0.1-4.9-0.2c1.5-1.8,4.7-5.3,9-6.8c0.7-0.2,1.2-0.4,1.7-0.4C86.6,48.5,86.8,48.7,87,49z"/>
	<path d="M50,39.2L50,39.2L50,39.2c0.2,0,15.3-0.2,30.9-1.4l1.2-0.1l-0.4-1.1c-0.2-0.4-4.1-10.1-7.8-13.5c-2.7-2.5-8.9-2.8-15.3-2.8
		c-1.5,0-3,0-4.4,0c-2.8,0-5.5,0-8.4,0c-1.5,0-3,0-4.4,0c-6.3,0-12.6,0.3-15.3,2.8c-3.7,3.4-7.6,13.1-7.8,13.5l-0.4,1.1l1.2,0.1
		C34.8,39.1,49.8,39.2,50,39.2z M27.3,24.5c2.3-2.1,8.4-2.4,14.1-2.4c1.5,0,2.9,0,4.4,0c2.9,0,5.5,0,8.4,0c1.5,0,2.9,0,4.4,0
		c5.7,0,11.8,0.3,14.1,2.4c2.7,2.5,5.7,9.1,6.9,11.8c-15,1.1-29.1,1.3-29.6,1.3c-0.5,0-14.6-0.2-29.6-1.3
		C21.6,33.6,24.6,26.9,27.3,24.5z"/>
</g>
</svg>
