<?xml version="1.0" encoding="utf-8"?>
<!-- Generator: Adobe Illustrator 22.0.1, SVG Export Plug-In . SVG Version: 6.00 Build 0)  -->
<svg version="1.1" xmlns="http://www.w3.org/2000/svg" xmlns:xlink="http://www.w3.org/1999/xlink" x="0px" y="0px"
	 viewBox="0 0 100 125" style="enable-background:new 0 0 100 125;" xml:space="preserve">
<g id="Calque_2">
</g>
<g id="Calque_1">
	<path d="M21.6,67c1.9,7.2,8.5,14.8,15.6,15.1l1.1,0l0.6-0.9c0.9-1.2,2.8-3.5,4.6-5.6c1.3-1.5,2.5-3,3.5-4.2c1,0.1,2,0.2,3.1,0.2
		c1,0,1.9-0.1,2.8-0.1c1,1.2,2.2,2.7,3.5,4.2c1.8,2.1,3.7,4.4,4.6,5.6l0.6,0.9l1.1,0c7.1-0.3,13.7-8,15.6-15.2
		c6.6,2.2,17.3,7.5,17.3,18.3h4c0-10.5-8.1-18.8-22.3-22.8c-0.9-0.7-3-2.5-4.5-3.7c2.2-3.7,3.7-8.1,4.6-13.2
		c4.2-0.5,7.4-3.7,7.9-8.2c0.3-2.5-0.4-4.9-1.9-6.8c-1-1.3-2.4-2.2-4-2.6c1.1-8.8-0.8-16.1-5.3-20.2c-3.2-2.9-7.5-4-12.2-3
		C59.1,1.9,54,0.4,50,0.4c-11.8,0-19.4,2.3-24,7.3c-4,4.4-5.6,10.8-4.9,20.1c-1.8,0.5-3.3,1.4-4.5,2.8c-1.5,1.8-2.2,4.2-1.9,6.8
		c0.5,4.6,3.7,7.8,8,8.2c0.9,5,2.5,9.4,4.6,13.1c-1.7,1.3-4.1,3.2-5,3.9C8.4,66.7,0.5,75,0.5,85.2h4C4.5,74.5,15.2,69.3,21.6,67z
		 M74.5,65.4c-1.2,5.4-6,11.7-11,12.7c-1-1.3-2.5-3.1-4-4.9c-0.7-0.8-1.4-1.6-2-2.4c5.3-1.4,9.7-4.4,13.1-8.7
		C71.8,63.2,73.6,64.6,74.5,65.4z M81.3,36.9c-0.2,2.2-1.5,3.8-3.3,4.4c0.2-2,0.3-4.1,0.3-6.3c0-1.1,0-2.2-0.1-3.3
		c0.8,0.3,1.6,0.7,2.1,1.4C81.1,34.1,81.4,35.4,81.3,36.9z M29,10.4c3.7-4.1,10.6-6,21-6c3.8,0,8.1,1.7,9.3,3.5l0.8,1.3l1.4-0.4
		c3.9-1.1,7.2-0.4,9.7,1.8c3.8,3.5,5.2,10.5,3.8,18.9c-6.7,0.1-11.8-8.8-13.3-11.8l-1.8-3.5l-1.8,3.5c-4.2,8-13.8,7.9-22.2,7.8
		c-4.2-0.1-8.2-0.1-10.9,1.1C24.6,19,25.8,13.8,29,10.4z M18.7,36.9c-0.2-1.5,0.2-2.8,1-3.8c0.5-0.6,1.2-1.1,2.1-1.4
		c0,1.3,0,2.6,0,3.3c0,2.2,0.1,4.3,0.3,6.3C20.2,40.8,18.9,39.1,18.7,36.9z M25.8,31.5L25.8,31.5c0.3-1.9,4-2,10.1-2
		c7.7,0.1,18,0.2,23.9-7c2.8,4.6,7.8,10.7,14.4,11c0,0.5,0,1,0,1.5c0,20.1-9.3,32.7-24.2,32.7S25.8,55.2,25.8,35
		C25.8,34.3,25.8,32.9,25.8,31.5z M42.4,70.7c-0.7,0.8-1.4,1.6-2.1,2.5c-1.5,1.8-3,3.6-4,4.9c-5-1-9.9-7.3-11.1-12.7
		c1-0.8,2.6-2.1,4.2-3.3C32.8,66.3,37.2,69.3,42.4,70.7z"/>
	<rect x="34" y="37.5" width="9.8" height="4"/>
	<rect x="56" y="37.5" width="9.8" height="4"/>
	<polygon points="52.8,88.4 49.8,83.2 47.1,88.4 40.6,89.1 45.3,93.3 43.8,100.1 50.1,96.7 56.4,100.1 54.8,93.5 59.4,89.2 	"/>
	<polygon points="72.8,88.4 69.8,83.2 67.1,88.4 60.6,89.1 65.3,93.3 63.8,100.1 70.1,96.7 76.4,100.1 74.8,93.5 79.4,89.2 	"/>
	<polygon points="100,89.2 93.3,88.4 90.4,83.2 87.6,88.4 81.2,89.1 85.8,93.3 84.3,100.1 90.6,96.7 96.9,100.1 95.3,93.5 	"/>
	<polygon points="32.8,88.4 29.8,83.2 27.1,88.4 20.6,89.1 25.3,93.3 23.8,100.1 30.1,96.7 36.4,100.1 34.8,93.5 39.4,89.2 	"/>
	<polygon points="12.1,88.4 9.2,83.2 6.5,88.4 0,89.1 4.6,93.3 3.1,100.1 9.4,96.7 15.8,100.1 14.1,93.5 18.8,89.2 	"/>
</g>
</svg>
