<?xml version="1.0" encoding="utf-8"?>
<!-- Generator: Adobe Illustrator 22.0.1, SVG Export Plug-In . SVG Version: 6.00 Build 0)  -->
<svg version="1.1"
	 id="Calque_1" xmlns:cc="http://creativecommons.org/ns#" xmlns:dc="http://purl.org/dc/elements/1.1/" xmlns:inkscape="http://www.inkscape.org/namespaces/inkscape" xmlns:rdf="http://www.w3.org/1999/02/22-rdf-syntax-ns#" xmlns:sodipodi="http://sodipodi.sourceforge.net/DTD/sodipodi-0.dtd" xmlns:svg="http://www.w3.org/2000/svg"
	 xmlns="http://www.w3.org/2000/svg" xmlns:xlink="http://www.w3.org/1999/xlink" x="0px" y="0px" viewBox="0 0 100 125"
	 style="enable-background:new 0 0 100 125;" xml:space="preserve">
<style type="text/css">
	.st0{fill:none;stroke:#FFFFFF;stroke-miterlimit:10;}
</style>
<g transform="translate(0,-952.36218)">
	<path class="st0" d="M14,974.4c-3.3,0-6,2.7-6,6v44c0,3.3,2.7,6,6,6h72c3.3,0,6-2.7,6-6v-44c0-3.3-2.7-6-6-6H14z M18.5,984.3
		c0.6-0.1,1.2,0.2,1.6,0.5l27,24.3c1.7,1.5,4.1,1.5,5.8,0l27-24.3c0.8-0.7,2.1-0.6,2.8,0.1s0.6,2.1-0.1,2.8l-16.5,14.9l16.5,14.1
		c0.9,0.6,1,2.1,0.3,2.9c-0.7,0.8-2.2,0.9-2.9,0.1l-16.9-14.4l-7.5,6.8c-3.2,2.9-8,2.8-11.2,0l-7.4-6.7l-17,14.5
		c-0.8,0.8-2.2,0.7-2.9-0.1c-0.7-0.8-0.5-2.3,0.3-2.9l16.5-14.1l-16.5-14.9c-0.6-0.5-0.8-1.4-0.6-2.1C17,985,17.7,984.4,18.5,984.3
		L18.5,984.3z"/>
</g>
</svg>
