<?xml version="1.0" encoding="utf-8"?>
<!-- Generator: Adobe Illustrator 22.0.0, SVG Export Plug-In . SVG Version: 6.00 Build 0)  -->
<svg version="1.1" id="Calque_1" xmlns="http://www.w3.org/2000/svg" xmlns:xlink="http://www.w3.org/1999/xlink" x="0px" y="0px"
	 viewBox="0 0 415.2 120.5" style="enable-background:new 0 0 415.2 120.5;" xml:space="preserve">
<style type="text/css">
	.st0{fill:#47466B;}
</style>
<g>
	<path id="S" class="st0" d="M61.6,66.4c0,4.4-1.1,8.4-3.4,11.8c-2.2,3.4-5.5,6.1-9.7,8s-9.2,2.9-14.9,2.9c-4.8,0-8.7-0.3-12-1
		s-6.6-1.8-10.1-3.5V67.4c3.7,1.9,7.5,3.4,11.5,4.4c4,1.1,7.6,1.6,10.9,1.6c2.9,0,5-0.5,6.3-1.5s2-2.3,2-3.8c0-1-0.3-1.8-0.8-2.6
		S40,64,38.8,63.3c-1.2-0.7-4.4-2.3-9.5-4.6c-4.7-2.1-8.1-4.2-10.5-6.2c-2.3-2-4.1-4.3-5.2-6.8c-1.1-2.6-1.7-5.6-1.7-9.1
		c0-6.6,2.4-11.7,7.2-15.4c4.8-3.7,11.4-5.5,19.7-5.5c7.4,0,14.9,1.7,22.6,5.1l-5.9,14.9c-6.7-3.1-12.4-4.6-17.3-4.6
		c-2.5,0-4.3,0.4-5.5,1.3c-1.1,0.9-1.7,2-1.7,3.3c0,1.4,0.7,2.7,2.2,3.8c1.4,1.1,5.4,3.1,11.8,6.1c6.2,2.8,10.4,5.7,12.8,8.9
		S61.6,61.6,61.6,66.4z"/>
	<path id="W" class="st0" d="M149.7,88.1h-22.8L120.1,57c-0.3-1.3-0.8-3.9-1.5-7.8s-1.2-7.1-1.5-9.7c-0.3,2.1-0.7,4.7-1.3,7.9
		c-0.6,3.1-1.2,6-1.7,8.7c-0.6,2.6-2.9,13.3-7.1,32H84.2L66.5,16.7h18.6l7.8,35.8c1.8,7.9,3,14.2,3.6,18.9c0.4-3.3,1.2-7.8,2.3-13.5
		c1.1-5.7,2.1-10.4,3.1-14.2l6.3-27h17.9l6.1,27c1,4.3,2.1,9.3,3.2,15s1.8,9.9,2.1,12.7c0.4-3.6,1.6-9.9,3.5-18.8l7.9-35.9h18.6
		L149.7,88.1z"/>
	<path id="I" class="st0" d="M176.5,88.1V16.7h19.4v71.4H176.5z"/>
	<path id="C" class="st0" d="M243.1,31.5c-4.6,0-8.2,1.9-10.7,5.6c-2.6,3.8-3.9,8.9-3.9,15.6c0,13.7,5.2,20.6,15.7,20.6
		c3.2,0,6.2-0.4,9.2-1.3c3-0.9,5.9-1.9,8.9-3.2v16.3c-6,2.6-12.7,4-20.2,4c-10.8,0-19-3.1-24.8-9.4c-5.7-6.2-8.6-15.3-8.6-27.1
		c0-7.4,1.4-13.9,4.2-19.5c2.8-5.6,6.8-9.9,12-12.9s11.4-4.5,18.4-4.5c7.7,0,15.1,1.7,22.1,5l-5.9,15.2c-2.6-1.2-5.3-2.3-7.9-3.1
		C249,31.9,246.1,31.5,243.1,31.5z"/>
	<path id="A" class="st0" d="M312.6,1.4h-15.9l-33,101.6H11.8l269.1,15l4.8-15l7.6-28.3h23.2l3.5,13.4h21.1L312.6,1.4z M297.3,58.9
		c3-11.2,4.9-18.7,5.7-22.5c0.9-3.8,1.4-6.6,1.7-8.2c0.3,1.8,1,4.8,2,8.9s1.9,7.5,2.6,10.1l3.1,11.7H297.3z"/>
	<path id="R" class="st0" d="M368.1,62.1v26h-19.3V16.7h23.4c19.4,0,29.1,7,29.1,21.1c0,8.3-4,14.7-12.1,19.2L410,88.1h-21.9
		l-15.1-26L368.1,62.1L368.1,62.1z M368.1,47.6h3.6c6.7,0,10.1-3,10.1-8.9c0-4.9-3.3-7.4-9.9-7.4h-3.8L368.1,47.6L368.1,47.6z"/>
</g>
</svg>
