<?xml version="1.0" encoding="utf-8"?>
<!-- Generator: Adobe Illustrator 22.0.1, SVG Export Plug-In . SVG Version: 6.00 Build 0)  -->
<svg version="1.1"
	 id="Calque_1" xmlns:cc="http://creativecommons.org/ns#" xmlns:dc="http://purl.org/dc/elements/1.1/" xmlns:inkscape="http://www.inkscape.org/namespaces/inkscape" xmlns:rdf="http://www.w3.org/1999/02/22-rdf-syntax-ns#" xmlns:sodipodi="http://sodipodi.sourceforge.net/DTD/sodipodi-0.dtd" xmlns:svg="http://www.w3.org/2000/svg"
	 xmlns="http://www.w3.org/2000/svg" xmlns:xlink="http://www.w3.org/1999/xlink" x="0px" y="0px" viewBox="0 0 100 125"
	 style="enable-background:new 0 0 100 125;" xml:space="preserve">
<style type="text/css">
	.st0{fill:none;stroke:#FFFFFF;stroke-miterlimit:10;}
</style>
<path class="st0" d="M36.2,43.1c0,0,6.9,13.5,20.6,20.6c0,0,1.5,0.4,3.2-1.3l2.7-2.6c0,0,1.8-2.8,6.2-0.5l12.5,7.3
	c0,0,4.4,1.8,0,6.1L73.2,81c0,0-1.8,3.4-11,1.4c0,0-31.1-8.2-44.6-43.8c0,0-3-6.4,1.3-11.6l9-9.1c0,0,3.7-3,5.5,1.3l6.7,12.7
	c0,0,2.5,2.9-0.6,6.1l-2.8,2.6C36.7,40.6,35.2,41.5,36.2,43.1z"/>
</svg>
